<?xml version="1.0" encoding="iso-8859-1"?>
<!-- Uploaded to: SVG Repo, www.svgrepo.com, Generator: SVG Repo Mixer Tools -->
<svg fill="#000000" height="800px" width="800px" version="1.1" id="Capa_1" xmlns="http://www.w3.org/2000/svg" xmlns:xlink="http://www.w3.org/1999/xlink" 
	 viewBox="0 0 486 486" xml:space="preserve">
<g>
	<g>
		<path d="M227.4,182.3v17.4c0,3.2,3.5,5.2,6.3,3.5l56.9-35.4c2.6-1.6,2.6-5.3,0-6.9l-56.9-35.4c-2.7-1.7-6.3,0.3-6.3,3.5v17.4H96.9
			h-0.1h-0.1h-0.4h-0.1C43,146.6,0,189.8,0,243c0,53.4,43.3,96.8,96.8,96.8c53.4,0,96.8-43.3,96.8-96.8c0-23-8-44.1-21.5-60.7
			L227.4,182.3L227.4,182.3z M124.5,281.2c-4.2,5.1-9.7,8.6-16.1,10.3c-2.8,0.8-4,2.2-3.9,5.1s0,5.7,0,8.6c0,2.6-1.3,3.9-3.8,4
			c-3.1,0.1-6.2,0.1-9.2,0c-2.7,0-4-1.6-4-4.2c0-2.1,0-4.2-0.1-6.3c0-4.6-0.2-4.8-4.6-5.5c-5.7-0.9-11.2-2.2-16.4-4.7
			c-4.1-2-4.5-3-3.3-7.3c0.9-3.2,1.7-6.4,2.7-9.5c1.1-3.7,2.1-4.1,5.5-2.4c5.7,3,11.8,4.7,18.2,5.5c4.1,0.5,8.1,0.1,12-1.6
			c7.1-3.1,8.2-11.4,2.2-16.3c-2-1.7-4.4-2.9-6.8-4c-6.2-2.7-12.7-4.8-18.6-8.4c-9.6-5.7-15.6-13.6-14.9-25.2
			c0.8-13.2,8.2-21.4,20.3-25.7c5-1.8,5-1.7,5-6.9c0-1.8,0-3.5,0-5.3c0.1-3.9,0.8-4.6,4.7-4.7c1.2,0,2.4,0,3.6,0
			c8.3,0,8.3,0,8.3,8.3c0,5.9,0,5.9,5.9,6.8c4.5,0.7,8.8,2,12.9,3.9c2.3,1,3.1,2.6,2.4,5c-1,3.6-2,7.2-3.2,10.8
			c-1.1,3.4-2.2,3.9-5.4,2.3c-6.5-3.1-13.3-4.4-20.5-4.1c-1.9,0.1-3.7,0.4-5.5,1.1c-6.2,2.7-7.2,9.5-1.9,13.8c2.7,2.1,5.7,3.7,8.9,5
			c5.5,2.3,11,4.4,16.2,7.3C131.8,246.1,136.2,267,124.5,281.2z"/>
		<path d="M389.2,146.2c-53.4,0-96.8,43.3-96.8,96.8c0,23,8,44.1,21.5,60.7h-55.4v-17.4c0-3.2-3.5-5.2-6.3-3.5l-56.9,35.4
			c-2.6,1.6-2.6,5.3,0,6.9l56.9,35.4c2.7,1.7,6.3-0.3,6.3-3.5v-17.4h130.6h0.1h0.1h0.4h0.1C443,339.4,486,296.2,486,243
			C486,189.6,442.7,146.2,389.2,146.2z M427.5,298.5c-3.3,1.5-6.7,2.7-10.2,3.7c-13.4,3.7-26.7,3.8-40-0.5
			c-16-5.2-26.7-16.1-33.1-31.5c-1.2-3-2-6.1-3-9.2h-12.6c-2.1,0-3.8-1.7-3.8-3.8v-8.5c0-2.1,1.7-3.8,3.8-3.8H339c0-2.3,0-4.6,0-6.9
			h-10.4c-2.1,0-3.8-1.7-3.8-3.8v-8.5c0-2.1,1.7-3.8,3.8-3.8h13.2l0.4-1.3c3.6-11.3,9.7-21,19.1-28.3c7.5-5.8,16.2-9,25.4-10.5
			c13.2-2.1,26-0.3,38.4,4.5c0.8,0.3,1.6,0.7,2.3,1.1c3,1.8,3.8,4,2.4,7.2c-1.4,3.4-2.8,6.7-4.3,10c-1.3,2.8-3.1,3.8-6.2,3.1
			c-4.2-1-8.3-2.2-12.5-3.1c-8.9-1.8-17.6-1.9-26.2,1.5c-7.4,2.9-11.9,8.6-15,15.6c0,0.1,0,0.2,0,0.3h25.7c2.1,0,3.8,1.7,3.8,3.8
			v8.5c0,2.1-1.7,3.8-3.8,3.8h-29.4c0,2.3,0,4.5,0,6.9h29.5c2.1,0,3.8,1.7,3.8,3.8v8.5c0,2.1-1.7,3.8-3.8,3.8h-26.9
			c3.2,9.3,8.5,16.4,18.4,19.6c7.9,2.5,15.9,2.3,24,0.7c4.2-0.9,8.2-2.1,12.4-3.1c3.2-0.7,5,0.1,6.4,3.1c1.5,3.3,3,6.7,4.3,10.1
			C431.5,294.6,430.6,297.1,427.5,298.5z"/>
	</g>
</g>
</svg>